<?xml version="1.0" encoding="utf-8"?>
<!-- Generator: Adobe Illustrator 23.1.0, SVG Export Plug-In . SVG Version: 6.00 Build 0)  -->
<svg version="1.1" id="Layer_1" xmlns="http://www.w3.org/2000/svg" xmlns:xlink="http://www.w3.org/1999/xlink" x="0px" y="0px"
	 viewBox="0 0 547.6 217.3" style="enable-background:new 0 0 547.6 217.3;" xml:space="preserve">
<style type="text/css">
	.st0{fill:url(#SVGID_1_);stroke:#F23000;stroke-width:0.2069;stroke-miterlimit:10;}
	.st1{fill:url(#SVGID_2_);}
	.st2{fill:url(#SVGID_3_);}
	.st3{fill:#FF0000;}
	.st4{fill:none;stroke:#F25900;stroke-width:0.1725;stroke-linecap:round;stroke-linejoin:round;stroke-miterlimit:10;}
	.st5{clip-path:url(#SVGID_9_);fill:url(#SVGID_10_);}
	.st6{clip-path:url(#SVGID_12_);fill:url(#SVGID_13_);}
	.st7{fill:url(#SVGID_14_);}
	.st8{fill:none;stroke:#F29100;stroke-width:0.3449;stroke-linecap:round;stroke-linejoin:round;stroke-miterlimit:10;}
</style>
<linearGradient id="SVGID_1_" gradientUnits="userSpaceOnUse" x1="236.3722" y1="86.9773" x2="310.195" y2="86.9773">
	<stop  offset="0" style="stop-color:#280000"/>
	<stop  offset="0.4528" style="stop-color:#D62229"/>
	<stop  offset="1" style="stop-color:#280000"/>
</linearGradient>
<path class="st0" d="M287.2,80.1c0,0-24,5.4-24.1,5.4c-5.6,1.8-25.5,3.7-24.7,10.1c0.7,5.4-1,10.1-2.1,12.2
	c2.5-2.3,11.1-2.5,13.2-3.2c0.1,0,37.4-8.3,37.4-8.3c22.9-4.9,23.6-8.9,23.1-12.5c-1.3-9.3-4.9-17.9-4.9-17.9
	C307.7,75.5,299,77.1,287.2,80.1"/>
<linearGradient id="SVGID_2_" gradientUnits="userSpaceOnUse" x1="271.5244" y1="56.3417" x2="310.0021" y2="56.3417">
	<stop  offset="0" style="stop-color:#EEEBE9"/>
	<stop  offset="0" style="stop-color:#DFDEDE"/>
	<stop  offset="0" style="stop-color:#DADADA"/>
	<stop  offset="8.233140e-02" style="stop-color:#F6F6F6"/>
	<stop  offset="0.1067" style="stop-color:#FFFFFF"/>
	<stop  offset="0.1321" style="stop-color:#F5F5F5"/>
	<stop  offset="0.1747" style="stop-color:#DBDBDB"/>
	<stop  offset="0.2291" style="stop-color:#B1B1B1"/>
	<stop  offset="0.2472" style="stop-color:#A1A1A1"/>
	<stop  offset="0.2719" style="stop-color:#A4A4A4"/>
	<stop  offset="0.2868" style="stop-color:#ACACAC"/>
	<stop  offset="0.299" style="stop-color:#BABABA"/>
	<stop  offset="0.3098" style="stop-color:#CECECE"/>
	<stop  offset="0.3146" style="stop-color:#DADADA"/>
	<stop  offset="0.3673" style="stop-color:#D0D0D0"/>
	<stop  offset="0.4559" style="stop-color:#B6B6B6"/>
	<stop  offset="0.5697" style="stop-color:#8C8C8B"/>
	<stop  offset="0.6918" style="stop-color:#575756"/>
	<stop  offset="0.7176" style="stop-color:#616160"/>
	<stop  offset="0.761" style="stop-color:#7A7A7A"/>
	<stop  offset="0.7796" style="stop-color:#878787"/>
	<stop  offset="0.791" style="stop-color:#A2A2A2"/>
	<stop  offset="0.808" style="stop-color:#C3C3C3"/>
	<stop  offset="0.8255" style="stop-color:#DEDEDE"/>
	<stop  offset="0.8434" style="stop-color:#F0F0F0"/>
	<stop  offset="0.8619" style="stop-color:#FBFBFB"/>
	<stop  offset="0.882" style="stop-color:#FFFFFF"/>
	<stop  offset="0.8899" style="stop-color:#F6F5F5"/>
	<stop  offset="0.9158" style="stop-color:#DCDBDB"/>
	<stop  offset="0.9424" style="stop-color:#CAC9C9"/>
	<stop  offset="0.97" style="stop-color:#BFBEBE"/>
	<stop  offset="1" style="stop-color:#BBBABA"/>
</linearGradient>
<path class="st1" d="M299.1,53.7c-5.6-3.7-21.8-5.2-27.5-20.9c0,0.1-0.9,12.6,4.4,20.7h12.2l-1,2.5c-0.6,1.7-0.3,5.2,0.3,8.3
	c0.4,0.2,0.7,0.4,1.1,0.6c12.1,5,14.8,7,16.9,8.7c2.2,1.7,3.1,4.1,3.7,6.4C306.7,66.5,305.5,57.9,299.1,53.7z"/>
<linearGradient id="SVGID_3_" gradientUnits="userSpaceOnUse" x1="266.0674" y1="42.2694" x2="314.8152" y2="70.414">
	<stop  offset="0" style="stop-color:#EEEBE9"/>
	<stop  offset="0" style="stop-color:#DFDEDE"/>
	<stop  offset="0" style="stop-color:#DADADA"/>
	<stop  offset="8.233140e-02" style="stop-color:#F6F6F6"/>
	<stop  offset="0.1067" style="stop-color:#FFFFFF"/>
	<stop  offset="0.2992" style="stop-color:#F5F5F5"/>
	<stop  offset="0.6222" style="stop-color:#DBDBDB"/>
	<stop  offset="0.635" style="stop-color:#DADADA"/>
	<stop  offset="0.7073" style="stop-color:#D0D0D0"/>
	<stop  offset="0.829" style="stop-color:#B6B6B6"/>
	<stop  offset="0.9843" style="stop-color:#8C8C8C"/>
	<stop  offset="1" style="stop-color:#878787"/>
</linearGradient>
<path class="st2" d="M271.6,32.7c0,0.1-0.9,12.6,4.4,20.7h12.2l-1,2.5c-0.6,1.7-0.3,5.2,0.3,8.3c0.4,0.2,0.7,0.4,1.1,0.6
	c12.1,5,14.8,7,16.9,8.7c2.2,1.7,3.1,4.1,3.7,6.4c-2.6-13.5-3.8-22.1-10.2-26.3C293.5,50,277.3,48.5,271.6,32.7z"/>
<path class="st3" d="M271.6,32.7c0,0.1-0.9,12.6,4.4,20.7c0,0,5.4,6.8,11.6,10.8c0.4,0.3,0.7,0.4,1.1,0.6c12.1,5,14.8,7,16.9,8.7
	c2.2,1.7,3.1,4.1,3.7,6.4c-2.6-13.5-3.8-22.1-10.2-26.3C293.5,50,277.3,48.5,271.6,32.7z"/>
<path class="st4" d="M271.6,32.7c0,0.1-0.9,12.6,4.4,20.7c0,0,5.4,6.8,11.6,10.8c0.4,0.3,0.7,0.4,1.1,0.6c12.1,5,14.8,7,16.9,8.7
	c2.2,1.7,3.2,4,3.8,6.4c-2.6-13.5-3.9-22.1-10.3-26.3C293.5,50,277.3,48.5,271.6,32.7z"/>
<g>
	<defs>
		<path id="SVGID_22_" d="M300.9,125.4c0,0-14.3,8-14.4,8c-1.4,0.7-14.1,9.8-14.3,13c-0.3,5.8-1.1,20.1-1.1,20.1
			c0.1-3.1,28.7-22.1,28.7-22.1c6-3.2,21.6-13.5,20.4-16.6c-3.5-9.7-3.7-16.3-3.7-16.3C316.4,114.8,306.9,122,300.9,125.4"/>
	</defs>
	<linearGradient id="SVGID_4_" gradientUnits="userSpaceOnUse" x1="271.1926" y1="138.9984" x2="320.3622" y2="138.9984">
		<stop  offset="0" style="stop-color:#280000"/>
		<stop  offset="0.4528" style="stop-color:#D62229"/>
		<stop  offset="1" style="stop-color:#280000"/>
	</linearGradient>
	<use xlink:href="#SVGID_22_"  style="overflow:visible;fill:url(#SVGID_4_);"/>
	<clipPath id="SVGID_5_">
		<use xlink:href="#SVGID_22_"  style="overflow:visible;"/>
	</clipPath>
	<use xlink:href="#SVGID_22_"  style="overflow:visible;fill:none;stroke:#F23000;stroke-width:0.2069;stroke-miterlimit:10;"/>
</g>
<g>
	<defs>
		<path id="SVGID_25_" d="M235.7,109.2c0,0,0.3-0.5,0.7-1.4C235.9,108.2,235.7,108.7,235.7,109.2"/>
	</defs>
	<linearGradient id="SVGID_6_" gradientUnits="userSpaceOnUse" x1="235.6507" y1="108.5403" x2="236.3722" y2="108.5403">
		<stop  offset="0" style="stop-color:#280000"/>
		<stop  offset="0.4528" style="stop-color:#D62229"/>
		<stop  offset="1" style="stop-color:#280000"/>
	</linearGradient>
	<use xlink:href="#SVGID_25_"  style="overflow:visible;fill:url(#SVGID_6_);"/>
	<clipPath id="SVGID_7_">
		<use xlink:href="#SVGID_25_"  style="overflow:visible;"/>
	</clipPath>
</g>
<g>
	<defs>
		<path id="SVGID_28_" d="M270.4,169.2c1.7,13.2,6.1,12,12.1,24.2c2.9,5.9,4.3,14.8,2.8,23.7c0,0,12.4-32,2.6-44.9
			c-1.7-2.2-9.9-13-11-14.9c-0.9-1.4-3.7-4.5-4.3-7c-0.3-1-0.3-3.4,0.5-5.4C271.1,147.1,269.4,160.9,270.4,169.2"/>
	</defs>
	<linearGradient id="SVGID_8_" gradientUnits="userSpaceOnUse" x1="270.0945" y1="180.9872" x2="291.6221" y2="180.9872">
		<stop  offset="0" style="stop-color:#EEEBE9"/>
		<stop  offset="0" style="stop-color:#DFDEDE"/>
		<stop  offset="0" style="stop-color:#DADADA"/>
		<stop  offset="8.233140e-02" style="stop-color:#F6F6F6"/>
		<stop  offset="0.1067" style="stop-color:#FFFFFF"/>
		<stop  offset="0.1321" style="stop-color:#F5F5F5"/>
		<stop  offset="0.1747" style="stop-color:#DBDBDB"/>
		<stop  offset="0.2291" style="stop-color:#B1B1B1"/>
		<stop  offset="0.2472" style="stop-color:#A1A1A1"/>
		<stop  offset="0.2719" style="stop-color:#A4A4A4"/>
		<stop  offset="0.2868" style="stop-color:#ACACAC"/>
		<stop  offset="0.299" style="stop-color:#BABABA"/>
		<stop  offset="0.3098" style="stop-color:#CECECE"/>
		<stop  offset="0.3146" style="stop-color:#DADADA"/>
		<stop  offset="0.3673" style="stop-color:#D0D0D0"/>
		<stop  offset="0.4559" style="stop-color:#B6B6B6"/>
		<stop  offset="0.5697" style="stop-color:#8C8C8B"/>
		<stop  offset="0.6918" style="stop-color:#575756"/>
		<stop  offset="0.7176" style="stop-color:#616160"/>
		<stop  offset="0.761" style="stop-color:#7A7A7A"/>
		<stop  offset="0.7796" style="stop-color:#878787"/>
		<stop  offset="0.791" style="stop-color:#A2A2A2"/>
		<stop  offset="0.808" style="stop-color:#C3C3C3"/>
		<stop  offset="0.8255" style="stop-color:#DEDEDE"/>
		<stop  offset="0.8434" style="stop-color:#F0F0F0"/>
		<stop  offset="0.8619" style="stop-color:#FBFBFB"/>
		<stop  offset="0.882" style="stop-color:#FFFFFF"/>
		<stop  offset="0.8899" style="stop-color:#F6F5F5"/>
		<stop  offset="0.9158" style="stop-color:#DCDBDB"/>
		<stop  offset="0.9424" style="stop-color:#CAC9C9"/>
		<stop  offset="0.97" style="stop-color:#BFBEBE"/>
		<stop  offset="1" style="stop-color:#BBBABA"/>
	</linearGradient>
	<use xlink:href="#SVGID_28_"  style="overflow:visible;fill:url(#SVGID_8_);"/>
	<clipPath id="SVGID_9_">
		<use xlink:href="#SVGID_28_"  style="overflow:visible;"/>
	</clipPath>
	<linearGradient id="SVGID_10_" gradientUnits="userSpaceOnUse" x1="257.4694" y1="181.0693" x2="309.691" y2="181.0693">
		<stop  offset="0" style="stop-color:#EEEBE9"/>
		<stop  offset="0" style="stop-color:#DFDEDE"/>
		<stop  offset="0" style="stop-color:#DADADA"/>
		<stop  offset="8.233140e-02" style="stop-color:#F6F6F6"/>
		<stop  offset="0.1067" style="stop-color:#FFFFFF"/>
		<stop  offset="0.1321" style="stop-color:#F5F5F5"/>
		<stop  offset="0.1747" style="stop-color:#DBDBDB"/>
		<stop  offset="0.2291" style="stop-color:#B1B1B1"/>
		<stop  offset="0.2472" style="stop-color:#A1A1A1"/>
		<stop  offset="0.2719" style="stop-color:#A4A4A4"/>
		<stop  offset="0.2868" style="stop-color:#ACACAC"/>
		<stop  offset="0.299" style="stop-color:#BABABA"/>
		<stop  offset="0.3098" style="stop-color:#CECECE"/>
		<stop  offset="0.3146" style="stop-color:#DADADA"/>
		<stop  offset="0.3673" style="stop-color:#D0D0D0"/>
		<stop  offset="0.4559" style="stop-color:#B6B6B6"/>
		<stop  offset="0.5697" style="stop-color:#8C8C8B"/>
		<stop  offset="0.6918" style="stop-color:#575756"/>
		<stop  offset="0.7176" style="stop-color:#616160"/>
		<stop  offset="0.761" style="stop-color:#7A7A7A"/>
		<stop  offset="0.7796" style="stop-color:#878787"/>
		<stop  offset="0.791" style="stop-color:#A2A2A2"/>
		<stop  offset="0.808" style="stop-color:#C3C3C3"/>
		<stop  offset="0.8255" style="stop-color:#DEDEDE"/>
		<stop  offset="0.8434" style="stop-color:#F0F0F0"/>
		<stop  offset="0.8619" style="stop-color:#FBFBFB"/>
		<stop  offset="0.882" style="stop-color:#FFFFFF"/>
		<stop  offset="0.8899" style="stop-color:#F6F5F5"/>
		<stop  offset="0.9158" style="stop-color:#DCDBDB"/>
		<stop  offset="0.9424" style="stop-color:#CAC9C9"/>
		<stop  offset="0.97" style="stop-color:#BFBEBE"/>
		<stop  offset="1" style="stop-color:#BBBABA"/>
	</linearGradient>
	<polygon class="st5" points="309.7,146.3 270,141.9 257.5,215.8 297.2,220.2 	"/>
</g>
<g>
	<g>
		<path d="M214.2,147l0.6,1.5l-15.8,0.4l-26.6-49.2l0,0.8v32.3c0,8.2,0.5,12.7,1.9,15.7l0.7,1.5l-20.7,0.9l0.6-1.6
			c1.4-3.9,2.2-11.6,2.2-21.6V87.9c0-9.6-0.3-16.4-1.8-20.4l-0.6-1.5h16l25.9,50.1l0-0.9l0.1-32.3c0-8.5-0.5-12.5-1.7-15.3l-0.7-1.6
			h20.1l-0.6,1.5c-1.5,3.9-1.8,10.4-1.8,20.4v37.9C211.9,135.8,212.7,143,214.2,147"/>
		<path d="M105.4,64.3c-9.2,0-17.5,4.7-23.6,13.2c-5.9,8.3-9.1,19.4-9.1,31.3c0,12,3.2,23.2,9.1,31.6c6.1,8.7,14.5,13.5,23.6,13.5
			c9.2,0,17.7-4.8,23.7-13.5c5.9-8.4,9.1-19.6,9.1-31.7C138.3,83.5,124.1,64.3,105.4,64.3 M105.5,136.9c-9.5,0-16.9-12.3-16.9-28
			c0-15.4,7.4-27.4,16.9-27.4c9.6,0,17,12,17,27.4C122.5,124.6,115,136.9,105.5,136.9"/>
		<path d="M389.4,127.6V87.9c0-9.6,0.3-16.4,1.8-20.4l0.6-1.5h-16.6l-16.9,37.5L341.5,66h-16.6l0.6,1.5c1.5,4,1.8,10.7,1.8,20.4
			v42.2c0,8.5-1.3,13.7-2.4,16.6l-0.6,1.5l21.2,0.5l-0.7-1.6c-1.4-3.2-2.2-8.6-2.2-16.2l-0.1-31.2l14.6,32.3h2.5l14.5-32.2l-0.1,33
			c0,8.5-0.5,12.5-1.7,15.3l-0.7,1.5l20.3,1l-0.6-1.6C390,145.2,389.4,138.3,389.4,127.6"/>
		<g>
			<path d="M451,74c-0.6-3.2-0.5-4.9,0.1-6.5l0.6-1.5h-2.5h-2.4h-12.6h-2.3h-2.6l0.6,1.5c0.7,1.9,0.6,3.9-0.2,8.2l-15.7,66.1
				c-1.5,6.4-3.4,9.5-3.4,9.5l20,1.2l-1.2-1.9c-0.9-1.5-0.4-4.4,0.6-9l10.6-52.1l10.7,54.3c1.3,5.7,1.3,7.4,0.5,8.8l-1,1.6l21,1.7
				c0,0-2.8-4.3-3.9-10.5L451,74z"/>
			<path d="M525.6,161l21.9,2.9c-0.9-0.4-4.1-6.5-6.7-14.9l-6.7-24.4c6.7-4.5,9.8-18.3,9.8-28.3C543.9,79,533.6,66,520,66h-29.3
				l0.6,1.5c1.4,3.8,1.8,10,1.8,30.1l-0.1,46.8c0,0.5-0.5,7.3-2,11.3l-0.5,1.3l20.5,2.2l-0.8-1.8c-1.3-3-2-8.4-2-16.6l0-13.6
				l11.7,1.1l5.5,20.8c1.6,5.4,1.9,8.8,1,10.5L525.6,161z M519,112.5l-10.7-1.1V82.1h10c6.5,0,10.5,7.5,10.5,14.5
				C528.7,103.7,525.5,112.5,519,112.5z"/>
		</g>
		<path d="M45.9,109.6c-2.8-1.9-5.7-3.3-8-4.4c-1.2-0.6-2.6-1.2-3.8-1.7c-3.9-1.7-7.9-3.4-10.8-6.1c-1.9-1.8-3.1-4.6-3.1-7.5
			c0-5.6,5.1-9.1,9.8-9.2l0.2,0c4.8,0,12.6,2.1,15.2,9.7l0.2-0.3l9.1-13l-0.4-0.6c-5.2-7.2-14.9-12-24.1-12
			c-7.3,0-13.9,2.6-18.5,7.4c-4.6,4.7-7.2,11.3-7.2,18.6c0,8.5,3.5,14.9,10.2,19.7c3.4,2.4,7.1,4.2,10.7,5.9
			c5.2,2.5,10.1,4.8,14,8.9c1.7,1.8,2.8,5.7,2.6,8.6c-0.3,6-5.6,10.9-12.2,11.3c-0.2,0-0.5,0-0.7,0c-7.1,0-15-5.5-20.3-14.8
			l-0.1-0.1L0,145.7l0.4,0.6c5.4,7.2,15.7,14.8,28.2,14.8h0c0.3,0,0.6,0,0.9,0c16-0.5,28.1-13,28.2-29c0-4.4-0.7-10.2-4.5-15.5
			C51.4,114,49,111.7,45.9,109.6"/>
	</g>
	<path d="M264.2,137.1c-1.3,6.3-1.1,8.2-0.2,9.6l1.2,2l-22.4,0.5c0,0,2.3-2.7,4.1-11.7L263.1,67c1.4-6.3,1.8-9.4,0.8-11.7l-0.8-1.8
		h25.1l-0.8,1.8c-1.2,2.8-0.3,6.8,1.3,14c0.2,1.1,0.5,2.3,0.8,3.6l0,0l15,64.6c1.4,7.4,4,11.5,4,11.5l-22.4-0.3l1.2-2
		c0.9-1.6,1.1-3.5-0.3-10.1l-11.4-56.4L264.2,137.1z"/>
</g>
<g>
	<defs>
		<path id="SVGID_32_" d="M270.4,169.2c1.7,13.2,6.1,12,12.1,24.2c2.9,5.9,4.3,14.8,2.8,23.7c0,0,12.4-32,2.6-44.9
			c-1.7-2.2-9.9-13-11-14.9c-0.9-1.4-3.7-4.5-4.3-7c-0.3-1-0.3-3.4,0.5-5.4C271.1,147.1,269.4,160.9,270.4,169.2"/>
	</defs>
	<linearGradient id="SVGID_11_" gradientUnits="userSpaceOnUse" x1="258.8183" y1="169.285" x2="299.328" y2="192.6733">
		<stop  offset="0" style="stop-color:#EEEBE9"/>
		<stop  offset="0" style="stop-color:#DFDEDE"/>
		<stop  offset="0" style="stop-color:#DADADA"/>
		<stop  offset="8.233140e-02" style="stop-color:#F6F6F6"/>
		<stop  offset="0.1067" style="stop-color:#FFFFFF"/>
		<stop  offset="0.2769" style="stop-color:#F5F5F5"/>
		<stop  offset="0.5625" style="stop-color:#DBDBDB"/>
		<stop  offset="0.5739" style="stop-color:#DADADA"/>
		<stop  offset="0.6426" style="stop-color:#D0D0D0"/>
		<stop  offset="0.7583" style="stop-color:#B6B6B6"/>
		<stop  offset="0.9059" style="stop-color:#8C8C8C"/>
		<stop  offset="0.9208" style="stop-color:#878787"/>
	</linearGradient>
	<use xlink:href="#SVGID_32_"  style="overflow:visible;fill:url(#SVGID_11_);"/>
	<clipPath id="SVGID_12_">
		<use xlink:href="#SVGID_32_"  style="overflow:visible;"/>
	</clipPath>
	<linearGradient id="SVGID_13_" gradientUnits="userSpaceOnUse" x1="232.6793" y1="111.5581" x2="320.3045" y2="111.5581">
		<stop  offset="0" style="stop-color:#EEEBE9"/>
		<stop  offset="0" style="stop-color:#DFDEDE"/>
		<stop  offset="0" style="stop-color:#DADADA"/>
		<stop  offset="8.233140e-02" style="stop-color:#F6F6F6"/>
		<stop  offset="0.1067" style="stop-color:#FFFFFF"/>
		<stop  offset="0.1321" style="stop-color:#F5F5F5"/>
		<stop  offset="0.1747" style="stop-color:#DBDBDB"/>
		<stop  offset="0.2291" style="stop-color:#B1B1B1"/>
		<stop  offset="0.2472" style="stop-color:#A1A1A1"/>
		<stop  offset="0.2719" style="stop-color:#A4A4A4"/>
		<stop  offset="0.2868" style="stop-color:#ACACAC"/>
		<stop  offset="0.299" style="stop-color:#BABABA"/>
		<stop  offset="0.3098" style="stop-color:#CECECE"/>
		<stop  offset="0.3146" style="stop-color:#DADADA"/>
		<stop  offset="0.3673" style="stop-color:#D0D0D0"/>
		<stop  offset="0.4559" style="stop-color:#B6B6B6"/>
		<stop  offset="0.5697" style="stop-color:#8C8C8B"/>
		<stop  offset="0.6918" style="stop-color:#575756"/>
		<stop  offset="0.7176" style="stop-color:#616160"/>
		<stop  offset="0.761" style="stop-color:#7A7A7A"/>
		<stop  offset="0.7796" style="stop-color:#878787"/>
		<stop  offset="0.791" style="stop-color:#A2A2A2"/>
		<stop  offset="0.808" style="stop-color:#C3C3C3"/>
		<stop  offset="0.8255" style="stop-color:#DEDEDE"/>
		<stop  offset="0.8434" style="stop-color:#F0F0F0"/>
		<stop  offset="0.8619" style="stop-color:#FBFBFB"/>
		<stop  offset="0.882" style="stop-color:#FFFFFF"/>
		<stop  offset="0.8899" style="stop-color:#F6F5F5"/>
		<stop  offset="0.9158" style="stop-color:#DCDBDB"/>
		<stop  offset="0.9424" style="stop-color:#CAC9C9"/>
		<stop  offset="0.97" style="stop-color:#BFBEBE"/>
		<stop  offset="1" style="stop-color:#BBBABA"/>
	</linearGradient>
	<rect x="232.7" y="95.3" class="st6" width="87.6" height="32.5"/>
</g>
<path d="M173.7,15.6c0,2.8,0.1,4.6,0.6,5.7h-5.6c0.5-0.9,0.6-2.1,0.6-4.4v-4.6h-8.5V17c0,2.3,0.1,3.5,0.6,4.4h-5.6
	c0.5-0.9,0.6-2.1,0.6-4.4V6.2c0-2.8-0.1-4.6-0.6-5.7h5.6c-0.5,0.9-0.6,2.1-0.6,4.4v3.7h8.5V4.8c0-2.3-0.1-3.5-0.6-4.4h5.6
	c-0.5,1.1-0.6,2.9-0.6,5.7V15.6z M191.7,10.8c0-6.5,4.4-10.8,10.6-10.8c6.2,0,10.6,4.3,10.6,10.8c0,6.6-4.4,10.9-10.6,10.9
	C196.1,21.7,191.7,17.4,191.7,10.8z M208.4,10.8c0-4.2-2.5-6.8-6.1-6.8c-3.6,0-6.1,2.6-6.1,6.8c0,4.2,2.5,6.8,6.1,6.8
	C205.9,17.7,208.4,15.1,208.4,10.8z M247.1,6.2v8.1c0,4.3-3,7.4-8.3,7.4c-5.2,0-8.3-3.1-8.3-7.4V6.2c0-2.8-0.1-4.6-0.6-5.7h5.6
	c-0.5,0.9-0.6,2.1-0.6,4.4v8.6c0,2.7,1.2,4.2,3.9,4.2c2.7,0,3.9-1.6,3.9-4.2V4.8c0-2.3-0.1-3.5-0.6-4.4h5.6
	C247.2,1.6,247.1,3.4,247.1,6.2z M309.2,4.9c-0.9-0.5-2.1-0.6-4.4-0.6h-4.7l0,4.7h4.5c1.5,0,2.7-0.1,3.3-0.3v4
	c-0.6-0.3-1.7-0.3-3.3-0.3h-4.5l0,5h4.7c2.3,0,3.5-0.1,4.4-0.6v4.5h-14.1c0.5-1.1,0.6-2.9,0.6-5.7V6.2c0-2.8-0.1-4.6-0.6-5.7h14.1
	V4.9z M339.4,10.8C339.4,4.3,343.8,0,350,0c6.2,0,10.6,4.3,10.6,10.8c0,6.6-4.4,10.9-10.6,10.9C343.8,21.7,339.4,17.4,339.4,10.8z
	 M356.1,10.8c0-4.2-2.5-6.8-6.1-6.8s-6.1,2.6-6.1,6.8c0,4.2,2.5,6.8,6.1,6.8C353.6,17.7,356.1,15.1,356.1,10.8z M391.8,5
	c-0.9-0.5-2.1-0.6-4.4-0.6H383v5h3.6c1.6,0,2.7-0.1,3.3-0.3v4c-0.6-0.3-1.7-0.3-3.3-0.3H383V17c0,2.3,0.1,3.5,0.6,4.4H378
	c0.5-1.1,0.6-2.9,0.6-5.7V6.2c0-2.8-0.1-4.6-0.6-5.7h13.8V5z M275.2,10.1c-0.7-0.4-1.4-0.8-1.9-1c-0.3-0.1-0.6-0.3-0.9-0.4
	c-0.9-0.4-1.9-0.8-2.6-1.4c-0.4-0.4-0.7-1-0.7-1.7c0-1.3,1.2-2,2.3-2.1l0,0c1.1,0,3,0.5,3.6,2.2l0-0.1l2.2-2.9l-0.1-0.1
	c-1.2-1.6-3.5-2.7-5.7-2.7c-1.7,0-3.3,0.6-4.4,1.7c-1.1,1.1-1.7,2.6-1.7,4.2c0,1.9,0.8,3.4,2.4,4.4c0.8,0.5,1.7,0.9,2.5,1.3
	c1.2,0.6,2.4,1.1,3.3,2c0.4,0.4,0.7,1.3,0.6,1.9c-0.1,1.4-1.3,2.4-2.9,2.5c-0.1,0-0.1,0-0.2,0c-1.7,0-3.6-1.2-4.8-3.3l0,0l-2,3.5
	l0.1,0.1c1.3,1.6,3.7,3.3,6.7,3.3h0c0.1,0,0.1,0,0.2,0c3.8-0.1,6.7-2.9,6.7-6.5c0-1-0.2-2.3-1.1-3.5
	C276.5,11.1,275.9,10.6,275.2,10.1"/>
<linearGradient id="SVGID_14_" gradientUnits="userSpaceOnUse" x1="240.8836" y1="91.0937" x2="316.1143" y2="134.5281">
	<stop  offset="0" style="stop-color:#EEEBE9"/>
	<stop  offset="0" style="stop-color:#DFDEDE"/>
	<stop  offset="0" style="stop-color:#DADADA"/>
	<stop  offset="6.856566e-02" style="stop-color:#F6F6F6"/>
	<stop  offset="8.889399e-02" style="stop-color:#FFFFFF"/>
	<stop  offset="0.155" style="stop-color:#F5F5F5"/>
	<stop  offset="0.266" style="stop-color:#DBDBDB"/>
	<stop  offset="0.2704" style="stop-color:#DADADA"/>
	<stop  offset="0.3857" style="stop-color:#E4E4E4"/>
	<stop  offset="0.5792" style="stop-color:#FEFEFE"/>
	<stop  offset="0.5869" style="stop-color:#FFFFFF"/>
	<stop  offset="0.5995" style="stop-color:#F6F5F5"/>
	<stop  offset="0.6409" style="stop-color:#DCDBDB"/>
	<stop  offset="0.6835" style="stop-color:#CAC9C9"/>
	<stop  offset="0.7276" style="stop-color:#BFBEBE"/>
	<stop  offset="0.7755" style="stop-color:#BBBABA"/>
	<stop  offset="1" style="stop-color:#878787"/>
</linearGradient>
<path class="st7" d="M235.5,108.7c-2.8,8.1,26.9,10.4,29.3,10.7c0.1,0,24,3.3,24,3.3c9.6,1.3,29.6,2,31.3,4.8
	c-0.5-1.6-2.9-8.9-3.6-16.1c-0.3-2.9-16.6-4.6-26.6-5.8c0,0-23.9-3.3-24-3.3c-2.6-0.3-27.6-4.1-27.4-6.9
	C238.5,95.3,237.3,103.6,235.5,108.7"/>
<path class="st3" d="M235.5,108.7c-2.8,8.1,26.9,10.4,29.3,10.7c0.1,0,24,3.3,24,3.3c9.6,1.3,29.6,2,31.3,4.8
	c-0.5-1.6-2.9-8.9-3.6-16.1c-0.3-2.9-16.6-4.6-26.6-5.8c0,0-23.9-3.3-24-3.3c-2.6-0.3-27.6-4.1-27.4-6.9
	C238.5,95.3,237.3,103.6,235.5,108.7"/>
<path class="st3" d="M270.4,169.2c1.7,13.2,6.1,12,12.1,24.2c2.9,5.9,4.3,14.8,2.8,23.7c0,0,12.4-32,2.6-44.9
	c-1.7-2.2-9.9-13-11-14.9c-0.9-1.4-3.7-4.5-4.3-7c-0.3-1-0.3-3.4,0.5-5.4C271.1,147.1,269.4,160.9,270.4,169.2"/>
<path class="st8" d="M270.4,169.2c1.7,13.2,6.1,12,12.1,24.2c2.9,5.9,4.3,14.8,2.8,23.7c0,0,12.4-32,2.6-44.9
	c-1.7-2.2-9.9-13-11-14.9c-0.9-1.4-3.7-4.5-4.3-7c-0.3-1-0.3-3.4,0.5-5.4C271.1,147.1,269.4,160.9,270.4,169.2"/>
<path class="st4" d="M235.5,108.7c-2.8,8.1,26.9,10.4,29.3,10.7c0.1,0,24,3.3,24,3.3c9.6,1.3,29.6,2,31.3,4.8
	c-0.5-1.6-2.9-8.9-3.6-16.1c-0.3-2.9-16.6-4.6-26.6-5.8c0,0-23.9-3.3-24-3.3c-2.6-0.3-27.6-4.1-27.4-6.9
	C238.5,95.3,237.3,103.6,235.5,108.7"/>
</svg>
